<?xml version="1.0" encoding="utf-8"?>
<!-- Generator: Adobe Illustrator 28.0.0, SVG Export Plug-In . SVG Version: 6.00 Build 0)  -->
<svg version="1.1" id="Layer_1" xmlns="http://www.w3.org/2000/svg" xmlns:xlink="http://www.w3.org/1999/xlink" x="0px" y="0px"
	 viewBox="0 0 150 33.2" style="enable-background:new 0 0 150 33.2;" xml:space="preserve">
<style type="text/css">
	.st0{fill:#235BDE;}
	.st1{fill:#ED0F79;}
</style>
<g>
	<g>
		<g>
			<path d="M14,12.4c-0.5,1-1.3,1.7-2.4,2.3c-1.1,0.6-2.5,0.9-4.3,0.9H4c-0.3,0-0.6,0.3-0.6,0.6v6.3c0,1-0.8,1.7-1.7,1.7h0
				c-1,0-1.7-0.8-1.7-1.7V3.6C0,3.3,0.3,3,0.6,3h6.7c1.6,0,3,0.3,4.1,0.8c1.1,0.6,2,1.3,2.5,2.3c0.6,1,0.8,2,0.8,3.2
				C14.8,10.4,14.5,11.4,14,12.4z M10.2,11.9c0.6-0.6,1-1.4,1-2.5c0-2.3-1.3-3.5-3.9-3.5H4c-0.3,0-0.6,0.3-0.6,0.6v5.7
				c0,0.3,0.3,0.6,0.6,0.6h3.2C8.6,12.7,9.6,12.4,10.2,11.9z"/>
			<path d="M33.2,9.1v12.1c0,1.6-1.3,2.9-2.9,2.9h0c-0.3,0-0.6-0.3-0.6-0.6v0c0-0.5-0.6-0.8-0.9-0.5c-0.4,0.3-0.8,0.5-1.2,0.7
				c-0.9,0.4-1.8,0.6-2.8,0.6c-1.3,0-2.5-0.3-3.5-0.8c-1-0.5-1.9-1.4-2.5-2.4c-0.6-1.1-0.9-2.4-0.9-3.9V9.1c0-0.9,0.8-1.7,1.7-1.7h0
				c0.9,0,1.7,0.8,1.7,1.7v7.6c0,1.5,0.4,2.6,1.1,3.4c0.7,0.8,1.8,1.2,3.1,1.2c1.3,0,2.3-0.4,3.1-1.2c0.8-0.8,1.1-1.9,1.1-3.4V9.1
				c0-0.9,0.8-1.7,1.7-1.7h0C32.5,7.4,33.2,8.2,33.2,9.1z"/>
		</g>
		<g>
			<path d="M59.1,11.2c0.7-1.3,1.7-2.3,2.9-3c1.2-0.7,2.5-1.1,4-1.1c1.3,0,2.5,0.3,3.4,0.8c0.5,0.3,1,0.6,1.4,0.9
				c0.4,0.3,1,0.1,1-0.4v0c0-0.5,0.4-1,1-1h0.8c1,0,1.7,0.8,1.7,1.7v12.1c0,1.6-1.3,2.9-2.9,2.9h0c-0.3,0-0.6-0.3-0.6-0.6v-0.4
				c0-0.5-0.6-0.8-1-0.4c-0.4,0.4-0.9,0.7-1.4,1c-1,0.5-2.2,0.8-3.5,0.8c-1.4,0-2.8-0.4-4-1.1c-1.2-0.7-2.1-1.8-2.8-3.1
				c-0.7-1.3-1-2.8-1-4.5C58,14,58.4,12.5,59.1,11.2z M71,12.7c-0.5-0.9-1.1-1.5-1.9-1.9c-0.8-0.4-1.6-0.7-2.5-0.7
				c-0.9,0-1.7,0.2-2.5,0.7c-0.8,0.4-1.4,1.1-1.9,1.9c-0.5,0.8-0.7,1.8-0.7,3c0,1.2,0.2,2.2,0.7,3c0.5,0.9,1.1,1.5,1.9,2
				c0.8,0.5,1.6,0.7,2.5,0.7c0.9,0,1.7-0.2,2.5-0.7c0.8-0.4,1.4-1.1,1.9-2c0.5-0.9,0.7-1.9,0.7-3C71.7,14.6,71.5,13.6,71,12.7z"/>
			<path d="M86.8,19.5l4.1-11.7c0.1-0.2,0.3-0.4,0.6-0.4h2.4c0.4,0,0.7,0.4,0.5,0.8l-5.3,14c-0.4,1.2-1.6,1.9-2.8,1.9h0
				c-1.2,0-2.4-0.8-2.8-1.9l-5.3-14c-0.1-0.4,0.1-0.8,0.5-0.8h2.4c0.2,0,0.5,0.2,0.6,0.4l4.1,11.7C85.9,20,86.6,20,86.8,19.5z"/>
			<path d="M97.5,4.5c-0.4-0.4-0.6-1-0.6-1.6c0-0.6,0.2-1.2,0.6-1.6c0.4-0.4,1-0.6,1.6-0.6c0.6,0,1.1,0.2,1.5,0.6
				c0.4,0.4,0.6,1,0.6,1.6c0,0.6-0.2,1.2-0.6,1.6c-0.4,0.4-0.9,0.6-1.5,0.6C98.4,5.2,97.9,5,97.5,4.5z M100.8,9.1v13.3
				c0,1-0.8,1.7-1.7,1.7l0,0c-1,0-1.7-0.8-1.7-1.7V9.1c0-1,0.8-1.7,1.7-1.7l0,0C100,7.4,100.8,8.2,100.8,9.1z"/>
			<path d="M115.5,7.9c0.5,0.3,1,0.6,1.4,0.9c0.4,0.3,1,0.1,1-0.4v0c0-0.5,0.4-1,1-1h0.8c1,0,1.7,0.8,1.7,1.7v15.3
				c0,1.5-0.3,2.9-1,4.1c-0.6,1.2-1.6,2.2-2.8,2.8c-1.2,0.7-2.7,1-4.4,1c-2.3,0-4.2-0.5-5.7-1.6c-0.7-0.5-1.2-1.1-1.7-1.7
				c-0.7-1.1,0.1-2.6,1.5-2.6l0,0c0.6,0,1.1,0.3,1.5,0.8c0.3,0.5,0.7,0.9,1.3,1.3c0.9,0.5,1.9,0.8,3.1,0.8c1.4,0,2.5-0.4,3.4-1.3
				c0.9-0.9,1.3-2.1,1.3-3.7v-1.3c0-0.5-0.6-0.8-1-0.4c-0.4,0.4-0.9,0.7-1.4,1c-1,0.5-2.1,0.8-3.4,0.8c-1.5,0-2.8-0.4-4-1.1
				c-1.2-0.7-2.2-1.8-2.9-3.1c-0.7-1.3-1-2.8-1-4.5c0-1.7,0.3-3.2,1-4.5c0.7-1.3,1.7-2.3,2.9-3c1.2-0.7,2.5-1.1,4-1.1
				C113.4,7.1,114.5,7.4,115.5,7.9z M117.2,12.7c-0.5-0.9-1.1-1.5-1.9-1.9c-0.8-0.4-1.6-0.7-2.5-0.7c-0.9,0-1.7,0.2-2.5,0.7
				c-0.8,0.4-1.4,1.1-1.9,1.9c-0.5,0.8-0.7,1.8-0.7,3c0,1.2,0.2,2.2,0.7,3c0.5,0.9,1.1,1.5,1.9,2c0.8,0.5,1.6,0.7,2.5,0.7
				c0.9,0,1.7-0.2,2.5-0.7c0.8-0.4,1.4-1.1,1.9-2c0.5-0.9,0.7-1.9,0.7-3C117.9,14.6,117.6,13.6,117.2,12.7z"/>
			<path d="M125.8,11.2c0.7-1.3,1.7-2.3,2.9-3c1.2-0.7,2.5-1.1,4-1.1c1.3,0,2.5,0.3,3.4,0.8c0.5,0.3,1,0.6,1.4,0.9
				c0.4,0.3,1,0.1,1-0.4v0c0-0.5,0.4-1,1-1h0.8c1,0,1.7,0.8,1.7,1.7v12.1c0,1.6-1.3,2.9-2.9,2.9l0,0c-0.3,0-0.6-0.3-0.6-0.6v-0.4
				c0-0.5-0.6-0.8-1-0.4c-0.4,0.4-0.9,0.7-1.4,1c-1,0.5-2.2,0.8-3.5,0.8c-1.4,0-2.8-0.4-4-1.1c-1.2-0.7-2.1-1.8-2.8-3.1
				c-0.7-1.3-1-2.8-1-4.5C124.8,14,125.1,12.5,125.8,11.2z M137.8,12.7c-0.5-0.9-1.1-1.5-1.9-1.9c-0.8-0.4-1.6-0.7-2.5-0.7
				c-0.9,0-1.7,0.2-2.5,0.7c-0.8,0.4-1.4,1.1-1.9,1.9c-0.5,0.8-0.7,1.8-0.7,3c0,1.2,0.2,2.2,0.7,3c0.5,0.9,1.1,1.5,1.9,2
				c0.8,0.5,1.6,0.7,2.5,0.7c0.9,0,1.7-0.2,2.5-0.7c0.8-0.4,1.4-1.1,1.9-2c0.5-0.9,0.7-1.9,0.7-3C138.5,14.6,138.2,13.6,137.8,12.7z
				"/>
			<path d="M150,3.4v19c0,1-0.8,1.7-1.7,1.7l0,0c-1,0-1.7-0.8-1.7-1.7v-19c0-1,0.8-1.7,1.7-1.7l0,0C149.2,1.7,150,2.4,150,3.4z"/>
		</g>
	</g>
	<g>
		<g>
			<g>
				<path class="st0" d="M45.9,23.5c-0.4,0-0.9-0.2-1.2-0.5l-5-5c-3.4-3.4-3.4-9,0-12.5l5-5c0.7-0.7,1.7-0.7,2.4,0
					c0.7,0.7,0.7,1.7,0,2.4l-5,5c-2.1,2.1-2.1,5.5,0,7.6l5,5c0.7,0.7,0.7,1.7,0,2.4C46.8,23.3,46.4,23.5,45.9,23.5z"/>
			</g>
		</g>
		<g>
			<g>
				<path class="st1" d="M46.4,33.2c-0.4,0-0.9-0.2-1.2-0.5c-0.7-0.7-0.7-1.7,0-2.4l5-5c2.1-2.1,2.1-5.5,0-7.6l-5-5
					c-0.7-0.7-0.7-1.7,0-2.4c0.7-0.7,1.7-0.7,2.4,0l5,5c3.4,3.4,3.4,9,0,12.5l-5,5C47.3,33,46.8,33.2,46.4,33.2z"/>
			</g>
		</g>
	</g>
</g>
</svg>
